Coordinates
version=1
nRows=8
nColumns=40
inDegrees=yes

Units are S.I. units (second, meters, Newtons, ...)
Angles are in degrees.

endheader
time	pelvis_tilt	pelvis_list	pelvis_rotation	pelvis_tx	pelvis_ty	pelvis_tz	hip_flexion_r	hip_adduction_r	hip_rotation_r	knee_angle_r	knee_angle_r_beta	ankle_angle_r	subtalar_angle_r	mtp_angle_r	hip_flexion_l	hip_adduction_l	hip_rotation_l	knee_angle_l	knee_angle_l_beta	ankle_angle_l	subtalar_angle_l	mtp_angle_l	lumbar_extension	lumbar_bending	lumbar_rotation	arm_flex_r	arm_add_r	arm_rot_r	elbow_flex_r	pro_sup_r	wrist_flex_r	wrist_dev_r	arm_flex_l	arm_add_l	arm_rot_l	elbow_flex_l	pro_sup_l	wrist_flex_l	wrist_dev_l
      1.40000000	      5.66385969	     -3.65481549	      2.56324324	      0.48956820	      0.90717423	     -1.44079448	     -5.84460066	      6.69246571	    -12.12768656	    -17.69252011	     -0.30879273	     10.97962403	      1.82001325	     -1.17343324	     18.98591427	      5.34243466	      7.86178225	    -39.81533204	     -0.69490864	      3.83405964	      4.26612319	    -12.69864043	     -8.14420700	      4.75751080	      3.12127872	      7.32794297	    -13.43289840	     17.15409822	     21.96913153	     89.95437384	      0.00000000	      0.00000000	      1.67836627	      7.52078245	     -6.24807445	     34.95758803	     89.95437384	      0.00000000	      0.00000000
      1.41000000	      6.00614187	     -3.34192850	      1.84401522	      0.50220187	      0.90662397	     -1.44023047	     -7.24247987	      6.22661153	    -12.08480187	    -17.58448016	     -0.30690708	     11.51836222	      2.55686226	     -1.78466611	     18.86575027	      5.20110932	      9.02509910	    -36.51324711	     -0.63727638	      3.45068109	      4.38515271	    -12.27955691	     -8.64302685	      4.24931685	      3.66628768	      7.97437459	    -13.65697125	     16.97646640	     23.31693355	     89.95437384	      0.00000000	      0.00000000	      1.20895294	      7.34750116	     -5.86994359	     32.51966256	     89.95437384	      0.00000000	      0.00000000
      1.42000000	      5.84687912	     -3.38351408	      1.49108211	      0.51407221	      0.90497397	     -1.44010734	     -7.93380591	      6.21714752	    -11.97753400	    -17.63648970	     -0.30781481	     11.90831308	      2.88353851	     -2.11375114	     19.52304984	      5.22478262	      9.33494083	    -33.40478515	     -0.58302349	      2.86348070	      4.20151274	    -11.87841075	     -8.60079567	      4.18047145	      3.78278471	      8.74430796	    -13.86290216	     16.83866356	     24.51102048	     89.95437384	      0.00000000	      0.00000000	      0.76806909	      7.20738304	     -5.74624818	     29.99336525	     89.95437384	      0.00000000	      0.00000000
      1.43000000	      5.76396059	     -3.34264162	      0.90962490	      0.52609354	      0.90333881	     -1.43975456	     -8.65214639	      6.07157374	    -11.63711315	    -17.81268282	     -0.31088996	     12.28522494	      3.14140916	     -2.43082997	     19.87463196	      5.29559601	     10.13885680	    -30.14477168	     -0.52612552	      1.86033574	      4.10263244	    -11.36957929	     -8.65986948	      4.00773191	      4.14490191	      9.43604383	    -14.08134242	     16.75599108	     25.75849604	     89.95437384	      0.00000000	      0.00000000	      0.33842875	      7.03368935	     -5.53505153	     27.43087852	     89.95437384	      0.00000000	      0.00000000
      1.44000000	      6.21570988	     -2.98701177	      0.18535689	      0.53879888	      0.90259212	     -1.43928376	    -10.03258569	      5.41891033	    -11.76698987	    -17.94073044	     -0.31312482	     12.75653557	      4.07799635	     -3.58647333	     19.25427491	      5.14391927	     11.64311282	    -26.54275600	     -0.46325848	      0.82190972	      3.94726117	    -10.08413048	     -9.27160148	      3.44472500	      4.55935528	     10.12881537	    -14.12136311	     16.39422054	     26.86284026	     89.95437384	      0.00000000	      0.00000000	     -0.17553529	      6.90544781	     -5.13435620	     24.99585416	     89.95437384	      0.00000000	      0.00000000
      1.45000000	      5.92887841	     -3.04679197	     -0.27274452	      0.55053419	      0.90050745	     -1.43909056	    -10.36126647	      5.35014710	    -11.46902885	    -18.37383953	     -0.32068400	     13.13162020	      4.11294432	     -3.96409125	     19.67613662	      5.32237946	     12.39129982	    -23.30411790	     -0.40673359	     -0.23705575	      3.43736940	     -9.54511311	     -9.12688694	      3.39730435	      4.71148259	     10.82699099	    -14.26827419	     16.50825167	     27.97506609	     89.95437384	      0.00000000	      0.00000000	     -0.63910272	      6.81606488	     -5.51109482	     22.38171451	     89.95437384	      0.00000000	      0.00000000
      1.46000000	      5.69887662	     -3.10290400	     -0.82884081	      0.56252153	      0.89857720	     -1.43893761	    -10.75934579	      5.23176470	    -10.99815989	    -18.83059209	     -0.32865583	     13.34434436	      4.20164523	     -4.26203043	     19.81523800	      5.49407726	     12.98198002	    -20.05580723	     -0.35003987	     -0.70327268	      2.67530652	     -9.23096644	     -9.00652556	      3.34944445	      4.89651216	     11.53165449	    -14.33388883	     16.59049034	     28.81976329	     89.95437384	      0.00000000	      0.00000000	     -1.19439167	      6.71770135	     -5.79529840	     19.94144578	     89.95437384	      0.00000000	      0.00000000
      1.47000000	      5.77934168	     -2.88620191	     -1.57468168	      0.57513150	      0.89728362	     -1.43868200	    -11.53666942	      4.68810514	    -10.64831219	    -19.27797677	     -0.33646417	     13.66136403	      4.44307842	     -5.06305259	     19.25977065	      5.53170471	     14.59641530	    -16.68023583	     -0.29112504	     -1.14795620	      0.93349194	     -8.63417091	     -9.16812123	      2.98886883	      5.22648964	     12.16779353	    -14.28138084	     16.52310201	     29.56155496	     89.95437384	      0.00000000	      0.00000000	     -1.83146632	      6.65165340	     -6.21007464	     17.62466740	     89.95437384	      0.00000000	      0.00000000
